<svg width="16" height="17" viewBox="0 0 16 17" fill="none" xmlns="http://www.w3.org/2000/svg">
<path d="M5.29295 2.13599C5.10548 2.32351 5.00017 2.57782 5.00017 2.84299C5.00017 3.10815 5.10548 3.36246 5.29295 3.54999L10.243 8.49999L5.29295 13.45C5.11079 13.6386 5.01 13.8912 5.01228 14.1534C5.01456 14.4156 5.11973 14.6664 5.30513 14.8518C5.49054 15.0372 5.74135 15.1424 6.00355 15.1447C6.26575 15.1469 6.51835 15.0461 6.70695 14.864L12.364 9.20699C12.5514 9.01946 12.6567 8.76515 12.6567 8.49999C12.6567 8.23482 12.5514 7.98052 12.364 7.79299L6.70695 2.13599C6.51942 1.94852 6.26512 1.8432 5.99995 1.8432C5.73479 1.8432 5.48048 1.94852 5.29295 2.13599Z" fill="black"/>
</svg>
