<svg width="36" height="36" viewBox="0 0 36 36" fill="none" xmlns="http://www.w3.org/2000/svg">
<path d="M17.9994 1.92871C9.12332 1.92871 1.92801 9.12402 1.92801 18.0001C1.92801 26.8763 9.12332 34.0716 17.9994 34.0716C26.8756 34.0716 34.0709 26.8763 34.0709 18.0001C34.0709 9.12402 26.8756 1.92871 17.9994 1.92871ZM17.9994 5.94657C24.6564 5.94657 30.053 11.3432 30.053 18.0001C30.053 24.6571 24.6564 30.0537 17.9994 30.0537C11.3425 30.0537 5.94587 24.6571 5.94587 18.0001C5.94587 11.3432 11.3425 5.94657 17.9994 5.94657ZM16.995 7.9555C16.7286 7.9555 16.4731 8.06132 16.2847 8.2497C16.0963 8.43807 15.9905 8.69356 15.9905 8.95996V10.9689C15.9905 11.2353 16.0963 11.4908 16.2847 11.6792C16.4731 11.8675 16.7286 11.9734 16.995 11.9734H19.0039C19.2703 11.9734 19.5258 11.8675 19.7142 11.6792C19.9025 11.4908 20.0084 11.2353 20.0084 10.9689V8.95996C20.0084 8.69356 19.9025 8.43807 19.7142 8.2497C19.5258 8.06132 19.2703 7.9555 19.0039 7.9555H16.995ZM18.1166 13.9843C17.5794 13.9686 17.0445 14.0609 16.5435 14.2556C16.0426 14.4504 15.5858 14.7437 15.2002 15.1181C14.8147 15.4926 14.5081 15.9406 14.2988 16.4356C14.0895 16.9307 13.9816 17.4627 13.9816 18.0001C13.9816 19.0657 14.4049 20.0877 15.1584 20.8412C15.9119 21.5947 16.9338 22.018 17.9994 22.018C19.065 22.018 20.087 21.5947 20.8405 20.8412C21.594 20.0877 22.0173 19.0657 22.0173 18.0001C22.0172 16.9549 21.6098 15.9508 20.8815 15.201C20.1532 14.4512 19.1614 14.0148 18.1166 13.9843ZM8.95926 15.9912C8.69286 15.9912 8.43737 16.097 8.249 16.2854C8.06062 16.4738 7.9548 16.7293 7.9548 16.9957V19.0046C7.9548 19.271 8.06062 19.5265 8.249 19.7149C8.43737 19.9032 8.69286 20.0091 8.95926 20.0091H10.9682C11.2346 20.0091 11.4901 19.9032 11.6785 19.7149C11.8668 19.5265 11.9727 19.271 11.9727 19.0046V16.9957C11.9727 16.7293 11.8668 16.4738 11.6785 16.2854C11.4901 16.097 11.2346 15.9912 10.9682 15.9912H8.95926ZM25.0307 15.9912C24.7643 15.9912 24.5088 16.097 24.3204 16.2854C24.1321 16.4738 24.0262 16.7293 24.0262 16.9957V19.0046C24.0262 19.271 24.1321 19.5265 24.3204 19.7149C24.5088 19.9032 24.7643 20.0091 25.0307 20.0091H27.0396C27.306 20.0091 27.5615 19.9032 27.7499 19.7149C27.9383 19.5265 28.0441 19.271 28.0441 19.0046V16.9957C28.0441 16.7293 27.9383 16.4738 27.7499 16.2854C27.5615 16.097 27.306 15.9912 27.0396 15.9912H25.0307ZM16.995 24.0269C16.7286 24.0269 16.4731 24.1328 16.2847 24.3211C16.0963 24.5095 15.9905 24.765 15.9905 25.0314V27.0403C15.9905 27.3067 16.0963 27.5622 16.2847 27.7506C16.4731 27.939 16.7286 28.0448 16.995 28.0448H19.0039C19.2703 28.0448 19.5258 27.939 19.7142 27.7506C19.9025 27.5622 20.0084 27.3067 20.0084 27.0403V25.0314C20.0084 24.765 19.9025 24.5095 19.7142 24.3211C19.5258 24.1328 19.2703 24.0269 19.0039 24.0269H16.995Z" fill="#4B4398"/>
</svg>
