<svg width="12" height="9" viewBox="0 0 12 9" fill="none" xmlns="http://www.w3.org/2000/svg">
<path d="M10.2102 -9.53674e-06H1.79019C1.45778 -0.000491142 1.13203 0.0931759 0.850638 0.270149C0.56925 0.447123 0.343733 0.700166 0.200191 0.99999C0.0321586 1.35573 -0.0325605 1.75152 0.0134084 2.14226C0.0593773 2.53299 0.214185 2.90296 0.460191 3.20999L4.67019 8.30999C4.83541 8.50062 5.03967 8.65351 5.26914 8.75829C5.49861 8.86307 5.74793 8.9173 6.00019 8.9173C6.25245 8.9173 6.50177 8.86307 6.73124 8.75829C6.96071 8.65351 7.16497 8.50062 7.33019 8.30999L11.5402 3.20999C11.7862 2.90296 11.941 2.53299 11.987 2.14226C12.0329 1.75152 11.9682 1.35573 11.8002 0.99999C11.6566 0.700166 11.4311 0.447123 11.1497 0.270149C10.8684 0.0931759 10.5426 -0.000491142 10.2102 -9.53674e-06Z" fill="black"/>
</svg>
