<svg width="17" height="16" viewBox="0 0 17 16" fill="none" xmlns="http://www.w3.org/2000/svg">
<path d="M7.40906 2C6.43814 2 5.48903 2.28791 4.68174 2.82733C3.87444 3.36674 3.24524 4.13343 2.87368 5.03045C2.50213 5.92746 2.40491 6.91451 2.59433 7.86677C2.78375 8.81904 3.25129 9.69375 3.93783 10.3803C4.62438 11.0668 5.49909 11.5344 6.45135 11.7238C7.40362 11.9132 8.39067 11.816 9.28768 11.4444C10.1847 11.0729 10.9514 10.4437 11.4908 9.63639C12.0302 8.8291 12.3181 7.87998 12.3181 6.90906C12.318 5.60712 11.8008 4.35853 10.8802 3.43792C9.95959 2.51731 8.711 2.00008 7.40906 2Z" stroke="black" stroke-miterlimit="10"/>
<path d="M11.0718 10.5716L14.5002 14" stroke="black" stroke-miterlimit="10" stroke-linecap="round"/>
</svg>
