<svg width="25" height="25" viewBox="0 0 25 25" fill="none" xmlns="http://www.w3.org/2000/svg">
<path d="M16.1094 7.21014C16.3077 7.20202 16.5013 7.27256 16.6479 7.4064C16.7945 7.54024 16.8823 7.72656 16.8922 7.92482L17.2137 14.9886C17.2218 15.089 17.2096 15.19 17.1779 15.2855C17.1461 15.3811 17.0955 15.4693 17.0289 15.5449C16.9623 15.6205 16.8812 15.6819 16.7903 15.7254C16.6995 15.7689 16.6009 15.7937 16.5002 15.7983C16.3996 15.8029 16.2991 15.7872 16.2047 15.752C16.1103 15.7169 16.024 15.6632 15.9508 15.594C15.8776 15.5248 15.8191 15.4415 15.7788 15.3492C15.7385 15.2569 15.7172 15.1574 15.7162 15.0567L15.477 9.8013L8.60662 17.3269C8.47251 17.4738 8.28553 17.5614 8.08682 17.5704C7.88812 17.5794 7.69396 17.5092 7.54706 17.3751C7.40016 17.241 7.31255 17.054 7.3035 16.8553C7.29446 16.6566 7.36472 16.4624 7.49883 16.3155L14.3692 8.78995L9.11378 9.02913C8.91946 9.03112 8.73195 8.95759 8.59077 8.82406C8.44959 8.69052 8.36574 8.5074 8.35691 8.31327C8.34807 8.11914 8.41494 7.92916 8.54341 7.78335C8.67188 7.63755 8.85193 7.5473 9.04563 7.53162L16.1094 7.21014Z" fill="white"/>
</svg>
