<svg width="454" height="206" viewBox="0 0 454 206" fill="none" xmlns="http://www.w3.org/2000/svg">
<path d="M-6 211.299L68.1496 207.059C70.0403 206.951 71.9368 207.112 73.7822 207.537L136.013 221.877C143.364 223.571 151.044 220.983 155.872 215.186L183.361 182.177C185.423 179.7 188.053 177.759 191.028 176.518L212.071 167.737C219.833 164.499 228.792 166.462 234.488 172.651L283.692 226.11C292.796 236 308.87 234.273 315.665 222.675L371.159 127.947C375.774 120.07 385.137 116.318 393.914 118.827L441.099 132.318C449.871 134.826 459.227 131.08 463.845 123.213L527.581 14.6347C530.966 8.86733 537.01 5.1737 543.687 4.79191L610 1" stroke="#CE2A96"/>
</svg>
