<svg width="454" height="180" viewBox="0 0 454 180" fill="none" xmlns="http://www.w3.org/2000/svg">
<path d="M-6 202.387L63.1544 194.961C68.1957 194.42 73.2545 195.813 77.3074 198.86L127.895 236.887C138.179 244.617 152.981 240.768 158.196 229.007L185.806 166.743C186.268 165.701 186.64 164.622 186.918 163.517L211.674 65.152C216.222 47.0843 240.829 44.5016 249.028 61.2314L282.343 129.205C289.947 144.719 312.319 143.942 318.828 127.938L365.397 13.4436C371.317 -1.11124 390.938 -3.46867 400.137 9.26968L442.485 67.91C449.616 77.7836 463.841 79.0458 472.598 70.5818L528.063 16.9763C531.263 13.8839 535.402 11.9468 539.827 11.4717L610 3.936" stroke="#6C60FF"/>
</svg>
